<?xml version="1.0" encoding="UTF-8"?>
<svg id="Layer_1" data-name="Layer 1" xmlns="http://www.w3.org/2000/svg" viewBox="0 0 869.63 869.64">
  <defs>
    <style>
      .cls-1 {
        fill: #000;
        stroke-width: 0px;
      }
    </style>
  </defs>
  <path class="cls-1" d="M501.39,21.07L0,522.48l347.19,347.16,501.39-501.38L869.63,0l-368.24,21.07ZM540.29,427.29l3.59,13-52.79,23.71-4.82-17.73c-2.01-7.41-5.73-21.09-19.61-34.95-6.12-6.11-12.27-9.35-17.85-9.35-4.84,0-8.24,2.39-10.25,4.4-5.02,5.05-7.55,11.23,6.07,45.04,12.96,30.86,23.54,70.7-10.51,104.74-14.56,14.57-33.71,22.61-53.9,22.61-13.65,0-27.54-3.64-40.4-10.6l-29.35,29.35-38.57-38.6,26.86-26.88c-11.69-15.31-19.71-32.43-22.26-47.66l-1.94-11.73,52.46-24.75,4.06,19.51c3.04,14.8,11.2,29.95,21.77,40.55,11.73,11.73,25.65,14.11,34.31,5.45,4.05-4.02,11.59-11.57-1.79-43.24-14.12-32.27-26.29-73.48,5.71-105.48,23.64-23.65,58.68-28.18,89.8-11.69l28.38-28.36,38.62,38.59-26.24,26.23c8.73,11.7,14.85,24.14,18.65,37.84h0ZM718.83,235.13c-11.25,11.25-26.26,17.46-42.16,17.46s-30.9-6.2-42.16-17.46c-23.24-23.23-23.24-61.07,0-84.3,11.26-11.26,26.25-17.46,42.16-17.46s30.91,6.2,42.16,17.46c11.26,11.24,17.46,26.24,17.46,42.14-.02,15.93-6.22,30.91-17.46,42.16Z"/>
</svg>