<?xml version="1.0" encoding="UTF-8"?>
<svg id="Layer_1" data-name="Layer 1" xmlns="http://www.w3.org/2000/svg" viewBox="0 0 749.28 892.68">
  <defs>
    <style>
      .cls-1 {
        fill: #000;
        stroke-width: 0px;
      }
    </style>
  </defs>
  <path class="cls-1" d="M0,0c0,50.52,23.16,91.56,73.68,91.56h275.16v93.84C188.04,199.32,61.92,334.2,61.92,498.6v360.72s.48,33.36,41.4,33.36h559.8c30.12,0,27.48-31.2,27.48-31.2v-363c0-163.68-125.04-298.08-284.76-312.96v-93.96h270.12c50.52,0,73.32-41.04,73.32-91.56H0ZM602.88,498.96c0,125.16-101.52,226.68-226.68,226.68s-226.56-101.52-226.56-226.68,101.52-226.68,226.56-226.68c125.16.12,226.68,101.52,226.68,226.68Z"/>
  <path class="cls-1" d="M396.36,479.52c9.48,9.48,9.12,25.08-.84,34.92-9.84,9.84-25.56,10.2-34.92.84l-120-120c-9.48-9.48-9.12-25.08.84-35.04,9.84-9.84,25.56-10.2,34.92-.84l120,120.12Z"/>
</svg>